<svg xmlns="http://www.w3.org/2000/svg" viewBox="0 0 356 359.96"><defs><style>.cls-1{fill:#2e3239;}.cls-2{fill:#26292b;}.cls-3{fill:#5f7adb;}</style></defs><title>logo2dark_1</title><g id="Layer_2" data-name="Layer 2"><g id="Layer_1-2" data-name="Layer 1"><rect class="cls-1" x="13" width="343" height="343"/><rect class="cls-2" y="16.96" width="343" height="343"/><circle class="cls-3" cx="81.99" cy="166.49" r="18.71"/><path class="cls-3" d="M82,196.51h0A23.49,23.49,0,0,1,105.48,220v64.39a0,0,0,0,1,0,0h-47a0,0,0,0,1,0,0V220A23.49,23.49,0,0,1,82,196.51Z"/><circle class="cls-3" cx="261.01" cy="166.93" r="18.71"/><path class="cls-3" d="M261,196.51h0A23.49,23.49,0,0,1,284.5,220v64.39a0,0,0,0,1,0,0h-47a0,0,0,0,1,0,0V220A23.49,23.49,0,0,1,261,196.51Z"/><circle class="cls-3" cx="172.04" cy="116.46" r="23.93"/><path class="cls-3" d="M171.17,149.53h0a30.89,30.89,0,0,1,30.89,30.89V282.65a0,0,0,0,1,0,0H140.29a0,0,0,0,1,0,0V180.41A30.89,30.89,0,0,1,171.17,149.53Z"/><path class="cls-3" d="M121.14,99.06h0A13.92,13.92,0,0,1,135.07,113v79.18a0,0,0,0,1,0,0H107.22a0,0,0,0,1,0,0V113A13.92,13.92,0,0,1,121.14,99.06Z" transform="translate(-67.48 128.31) rotate(-45)"/><path class="cls-3" d="M209.31,100.16h27.84a0,0,0,0,1,0,0v79.18a13.92,13.92,0,0,1-13.92,13.92h0a13.92,13.92,0,0,1-13.92-13.92V100.16A0,0,0,0,1,209.31,100.16Z" transform="translate(277.33 408.3) rotate(-135)"/></g></g></svg>